<?xml version="1.0" encoding="utf-8"?>
<!-- Svg Vector Icons : http://www.onlinewebfonts.com/icon -->
<!DOCTYPE svg PUBLIC "-//W3C//DTD SVG 1.1//EN" "http://www.w3.org/Graphics/SVG/1.1/DTD/svg11.dtd">
<svg version="1.1" xmlns="http://www.w3.org/2000/svg" xmlns:xlink="http://www.w3.org/1999/xlink" x="0px" y="0px" viewBox="0 0 1000 1000" enable-background="new 0 0 1000 1000" xml:space="preserve">
<metadata> Svg Vector Icons : http://www.onlinewebfonts.com/icon </metadata>
<g><g transform="translate(0.000000,512.000000) scale(0.100000,-0.100000)"><path fill="yellow" d="M4622.6,5016.9c-693.8-70.9-1213.2-214.7-1782.4-494.5c-500.2-245.3-856.7-498.3-1263-891.2c-417.8-408.2-722.6-828-981.3-1353.1c-241.5-494.5-389.1-979.4-471.5-1552.4c-32.6-226.2-32.6-981.3,0-1207.5c136.1-950.6,504.1-1803.5,1082.9-2506.9c1353.1-1642.5,3595.5-2229,5571.5-1458.5C8043.7-3952.7,9071-2923.5,9569.3-1650.9C9772.5-1127.7,9876-625.6,9897-41c46,1326.3-446.6,2604.6-1374.2,3562.9c-421.7,435.1-833.7,736-1370.4,998.5c-483,237.7-927.6,377.6-1466.2,460C5492.8,5009.2,4789.4,5034.1,4622.6,5016.9z M2786.6,2207.1l369.9-368l369.9,368c329.7,327.7,377.6,368,433.2,368c128.4,0,212.7-88.2,212.7-224.2c0-65.2-24.9-95.8-364.2-435.1l-362.2-366.1l362.2-366.1C4160.7,831,4172.2,817.6,4172.2,741c0-139.9-136.1-243.4-260.6-197.4c-30.7,11.5-212.8,178.2-404.4,369.9l-350.7,348.8l-348.8-348.8c-193.6-191.7-375.6-358.4-406.3-369.9c-124.6-46-260.7,57.5-260.7,197.4c0,76.7,11.5,90.1,364.2,442.7l362.2,366.1l-362.2,366.1c-350.7,350.7-364.2,368-364.2,440.8c1.9,136.1,78.6,216.6,208.9,218.5C2410.9,2575.1,2447.3,2544.5,2786.6,2207.1z M6476,2197.6l360.3-360.3l369.9,369.9c329.7,327.7,377.6,368,433.2,368c128.4,0,212.7-88.2,212.7-224.2c0-65.2-24.9-95.8-364.1-435.1l-362.2-366.1l362.2-366.1C7840.6,831,7852.1,817.6,7852.1,741c0-139.9-136.1-243.4-260.6-197.4c-30.7,11.5-212.8,178.2-404.4,369.9l-350.7,348.8l-348.8-348.8c-193.6-191.7-375.6-358.4-406.3-369.9c-124.6-46-260.6,57.5-260.6,197.4c0,76.7,11.5,90.1,364.2,442.7l362.2,366.1l-362.2,366.1c-350.7,350.7-364.2,368-364.2,440.8c1.9,143.7,86.3,226.2,218.5,210.8C6108,2559.8,6148.2,2523.4,6476,2197.6z M7325-1534c67.1-28.8,124.6-113.1,124.6-184s-57.5-155.2-124.6-184c-97.7-40.3-4559.5-40.3-4657.3,0c-67.1,28.8-124.6,113.1-124.6,184c0,69,57.5,155.3,120.7,182.1C2755.9-1495.7,7229.2-1493.8,7325-1534z"/></g></g>
</svg>